<svg xmlns="http://www.w3.org/2000/svg" width="212" height="30.5" version="1.0" viewBox="62.5 109.5 212 30.5"><g fill="#ffffffff" class="iconblsvg-g iconsvg"><g class="tp-name" opacity=".893"><path d="M71.192 127.858c-1.93 0-2.83-1.06-2.83-3.84 0-1.72.34-5.69 3.19-5.69 1.36 0 1.36.91 1.4 2.99 0 .32.09.41.75.41 2.06 0 3.26-.86 3.26-2.78 0-2.25-1.63-4.08-5.21-4.08-6.65 0-7.63 6.36-7.63 9.37 0 5.57 3.31 7.16 6.41 7.16s4.71-1.59 4.96-2.61c.2-.83.34-1.54.34-2.01 0-.43-.12-.68-.46-.68-.95 0-1.69 1.76-4.18 1.76Zm11.86 3.54c5.68 0 6.77-4.76 6.77-7.61 0-3.35-1.52-5.3-5.32-5.3-5.19 0-6.79 3.6-6.79 7.25 0 3.14 1.2 5.66 5.34 5.66Zm1.06-9.9c1.34 0 1.86.93 1.86 2.43 0 1.4-.45 4.46-2.58 4.46-1.18 0-1.84-.91-1.84-2.9 0-1.29.28-3.99 2.56-3.99Zm11.55 9.9c1.65 0 2.76-.8 3.3-1.95 0 1.38.98 1.72 2.27 1.72h.81c.43 0 .46-.09.5-.45.14-1.36 1.09-14.31 1.09-14.36 0-1.01-.55-1.94-2.36-1.94h-.88c-.25 0-.29 0-.36.07-.07.06-.09.22-.12.58-.11 1.91-.22 2.83-.33 5.19-.25-1.29-1.2-1.77-2.7-1.77-4.71 0-5.61 4.73-5.61 7.36 0 3.89 2.01 5.55 4.39 5.55Zm1.97-9.9c1.51 0 1.83 1.43 1.83 2.95 0 2.69-.99 3.94-2.28 3.94-1.48 0-1.82-1.61-1.82-3.17 0-2.27.73-3.72 2.27-3.72Zm12.88 9.9c2.01 0 4.44-.71 4.44-2.47 0-1.36-1.43-1.61-1.72-1.61-.64 0-.62 1.25-2.2 1.25-1.54 0-2.15-1.16-2.15-2.31 1.47 0 7.09-.23 7.09-4.37 0-1.86-1.11-3.4-4.26-3.4-5.84 0-6.72 5.32-6.72 7.61 0 4.12 2.89 5.3 5.52 5.3Zm.43-9.9c.77 0 1.15.57 1.15 1.18 0 1.11-1.29 1.74-3.14 1.77.16-1.29.65-2.95 1.99-2.95Zm19.11 2.29c.22-2.26.38-6.29.38-7.06 0-.84-.18-1.63-2.22-1.63h-1.24c-.3 0-.36.09-.36.7 0 .77-.3 4.53-.55 7.6-.09 1.25-.43 4.46-2.51 4.46-1.61 0-1.63-1.87-1.63-2.89 0-.8.47-7.25.47-7.54 0-1.54-.47-2.33-2.33-2.33h-1.24c-.25 0-.36.11-.39.68-.09 1.65-.74 8.24-.74 10.25 0 2.97 1.51 5.37 5.45 5.37 5.77 0 6.64-4.89 6.91-7.61Zm10.03-5.3c-1.63 0-2.7.57-3.4 1.95 0-.93-.72-1.72-2.33-1.72h-.88c-.21 0-.3 0-.37.07-.07.06-.09.22-.11.59-.14 1.72-1.02 12.9-1.02 13.83 0 1.38.45 2.15 2.31 2.15h.82c.38 0 .47-.09.49-.45.37-4.19.18-2.25.48-5.51.52 1.25 1.36 2 2.94 2 3.01 0 5.34-2.74 5.34-7.45 0-3.76-1.47-5.46-4.27-5.46Zm-1.66 3.01c1.54 0 1.86 1.43 1.86 2.95 0 2.69-1 3.94-2.29 3.94-1.47 0-1.81-1.61-1.81-3.17 0-2.29.73-3.72 2.24-3.72Z" data-gra="path-name"/><svg width="25.04" height="25.129" class="image-svg-svg primary" style="overflow:visible" transform="translate(147.352 112.436)"><svg xmlns="http://www.w3.org/2000/svg" viewBox="-0.002 0 68.162 68.403"><path fill="#00ff37ff" d="M21.21 23.48v21.66c0 1.52.3 2 1.95 2 12.07-.07 24.15 0 36.22 0 2.48 0 5 .1 7.44 0 1.12 0 1.4.38 1.33 1.41A5.27 5.27 0 0 1 66.57 52q-7 7.41-14 14.85a4.79 4.79 0 0 1-3.7 1.55H4.68c-3 0-4.6-1.64-4.61-4.67C0 48.94 0 34.22 0 19.49a5 5 0 0 1 1.65-3.84Q9.18 8.6 16.63 1.5A4.93 4.93 0 0 1 18.35.36c2.27-.78 2.86-.37 2.86 2z"/><path fill="#278d68ff" d="M68.15 17.76v15.58c0 1.58-.57 2.16-2.14 2.12-3.17-.08-6.35-.11-9.52 0-1.61.07-1.91-.55-1.89-2 .07-5.83 0-11.66 0-17.49 0-2.25-.09-2.32-2.35-2.32-5.66 0-11.31-.05-17 0-1.47 0-1.85-.45-1.81-1.86.1-3.29.07-6.58 0-9.87C33.51.65 34 .1 35.33.1q15.49.06 31 0c1.51 0 1.84.76 1.83 2.06-.03 5.21-.01 10.4-.01 15.6z"/></svg></svg><path d="M178.882 131.168c.27 0 .34-.09.36-.34.03-.27.21-2.58.39-5.25.38.09.81.13 1.33.16.71 2.94 1.61 5.66 3.51 5.66 1.77 0 2.86-1.29 2.86-1.7 0-.27-.37-.79-1.07-1.81l-1.9-2.72c2.04-.95 2.94-2.92 2.94-5.25 0-3.06-1.54-5.05-5.43-5.05-1.25 0-3.31.23-5.21.23-.29 0-.34.22-.43 1.58-.07 1.09-.16 2.92-.38 5.96-.23 2.89-.46 5.77-.46 6.52 0 1.31.66 2.01 2.36 2.01Zm2.54-12.9c1.49 0 2.03.7 2.03 1.92 0 .95-.34 2.6-2.24 2.6-.4 0-.88-.06-1.38-.18.11-1.65.21-3.17.25-4.23.5-.07.97-.11 1.34-.11Zm12.79 13.13c2.01 0 4.43-.71 4.43-2.47 0-1.36-1.42-1.61-1.72-1.61-.63 0-.61 1.25-2.19 1.25-1.54 0-2.15-1.16-2.15-2.31 1.47 0 7.08-.23 7.08-4.37 0-1.86-1.11-3.4-4.25-3.4-5.84 0-6.73 5.32-6.73 7.61 0 4.12 2.9 5.3 5.53 5.3Zm.43-9.9c.77 0 1.15.57 1.15 1.18 0 1.11-1.29 1.74-3.14 1.77.15-1.29.65-2.95 1.99-2.95Zm12.09 6.89c-1.48 0-2.13-.73-2.13-2.88 0-1.2.2-4.01 2.08-4.01 1.02 0 1.02.84 1.04 2.31 0 .27.14.32.59.32 1.86 0 2.94-.75 2.94-2.38 0-1.81-1.33-3.26-4.27-3.26-5.44 0-6.23 4.91-6.23 7.25 0 4.41 2.87 5.66 5.16 5.66 2.08 0 3.4-1.18 3.67-1.5.29-.34.72-1.61.72-2.01 0-.43-.2-.68-.52-.68-.52 0-1.29 1.18-3.05 1.18Zm5.11 0c0 2.19 1.47 3.01 3.29 3.01 1.87 0 2.96-.93 3.69-1.97.22 1.22.9 1.97 2.35 1.97 2.08 0 2.72-1.61 2.72-2.95 0-.47-1.34.03-1.34-1.49 0-.68.39-3.8.39-4.48 0-2.54-1.43-3.99-4.78-3.99-3.46 0-5.19 1.54-5.19 3.44 0 1.2.77 1.75 2.31 1.75.46 0 .64-.05.71-.32.27-1.09.47-1.83 1.74-1.83 1.13 0 1.4.61 1.4 1.58 0 .32-.02.52-.04.84-4.73.11-7.25 1.74-7.25 4.44Zm7.04-2.59c-.13 1.73-1.13 2.59-2.1 2.59-.5 0-1.04-.23-1.04-.93 0-1.2 1.56-1.66 3.14-1.66Zm13.7-1.67c1.58 0 2.6-1.38 2.6-3.01 0-1.81-1.29-2.63-2.46-2.63-.98 0-2.36.55-3.06 1.95-.11-.93-.61-1.72-2.33-1.72h-.89c-.24 0-.45.23-.47.66-.48 6.65-.68 8.71-.68 9.64 0 1.38.45 2.15 2.31 2.15h.81c.25 0 .5-.16.5-.45 0-.52.3-3.85.43-5.78.16-2.19.75-3.3 1.59-3.3.54 0 .68.47.68 1.13 0 .36-.05.68-.05 1.07 0 .22.68.29 1.02.29Zm10.93 4.37c0 2.72-.7 4.25-2.69 4.25-2.29 0-1.83-1.47-2.87-1.47-.87 0-1.97.52-1.97 1.68 0 1.27 1.6 2.62 4.77 2.62 4.24 0 5.68-1.99 6.11-4.03.66-3.07 1-9.73 1-10.5 0-1.81-.68-2.33-2.24-2.33h-1.04c-.18 0-.27.04-.3.23-.02.18-.06 1.44-.09 1.4-.31-1.04-1.11-1.86-2.89-1.86-4.33 0-5.37 3.99-5.37 6.88 0 3.56 1.68 5.12 4.17 5.12 1.6 0 2.67-.66 3.41-1.99Zm-1.9-1.02c-1.22 0-1.7-.75-1.7-2.24 0-.91.19-3.74 2.4-3.74 1.11 0 1.68.71 1.68 2.52 0 1.13-.23 3.46-2.38 3.46Zm7.56.91c0 2.19 1.48 3.01 3.29 3.01 1.88 0 2.96-.93 3.69-1.97.22 1.22.9 1.97 2.35 1.97 2.08 0 2.72-1.61 2.72-2.95 0-.47-1.34.03-1.34-1.49 0-.68.39-3.8.39-4.48 0-2.54-1.43-3.99-4.78-3.99-3.46 0-5.18 1.54-5.18 3.44 0 1.2.77 1.75 2.31 1.75.45 0 .63-.05.7-.32.27-1.09.47-1.83 1.74-1.83 1.13 0 1.4.61 1.4 1.58 0 .32-.02.52-.04.84-4.73.11-7.25 1.74-7.25 4.44Zm7.04-2.59c-.13 1.73-1.13 2.59-2.1 2.59-.5 0-1.04-.23-1.04-.93 0-1.2 1.56-1.66 3.14-1.66Zm11.66-7.31c-2.49 0-5.18 1.09-5.18 4.19 0 4.21 4.96 3.46 4.96 5.18 0 .64-.7.75-1.45.75-1.99 0-2.24-.84-2.99-.84-.88 0-1.31 1.2-1.31 1.72 0 1.43 3.1 1.91 4.8 1.91 3.05 0 4.61-1.54 4.61-3.72 0-4.05-5.38-3.35-5.38-5.23 0-.61.56-1.06 1.4-1.06 1.25 0 1.29.97 1.31 1.52 0 .25.12.31.55.31 1.56 0 2.42-.72 2.42-2.03 0-1.57-1.2-2.7-3.74-2.7Z" data-gra="path-name-1"/></g></g></svg>