<svg viewBox="62.50000000000001 109.5 212 30.5" xmlns:xlink="http://www.w3.org/1999/xlink" xmlns="http://www.w3.org/2000/svg" version="1.0" data-v-0dd9719b="" width="212" height="30.5">
	<g transform="translate(66.25482177734375,112.43559837341576)" class="iconblsvg-g iconsvg" fill="#ffffffff" data-v-0dd9719b="">
		<g transform="matrix(1,0,0,1,-2.132804121167503,0)" opacity="0.8933597939416249" class="tp-name">
		<g transform="translate(0, 1.982132100741108)" data-gra="path-name">
			<g>
				<path transform="translate(-0.8799999952316284, 16.75)" d="M7.95-3.31C6.02-3.31 5.12-4.37 5.12-7.15 5.12-8.87 5.46-12.84 8.31-12.84 9.67-12.84 9.67-11.93 9.71-9.85 9.71-9.53 9.8-9.44 10.46-9.44 12.52-9.44 13.72-10.3 13.72-12.22 13.72-14.47 12.09-16.3 8.51-16.3 1.86-16.3 0.88-9.94 0.88-6.93 0.88-1.36 4.19 0.23 7.29 0.23 10.39 0.23 12-1.36 12.25-2.38 12.45-3.21 12.59-3.92 12.59-4.39 12.59-4.82 12.47-5.07 12.13-5.07 11.18-5.07 10.44-3.31 7.95-3.31ZM19.81 0.23C25.49 0.23 26.58-4.53 26.58-7.38 26.58-10.73 25.06-12.68 21.26-12.68 16.07-12.68 14.47-9.08 14.47-5.43 14.47-2.29 15.67 0.23 19.81 0.23ZM20.87-9.67C22.21-9.67 22.73-8.74 22.73-7.24 22.73-5.84 22.28-2.78 20.15-2.78 18.97-2.78 18.31-3.69 18.31-5.68 18.31-6.97 18.59-9.67 20.87-9.67ZM32.42 0.23C34.07 0.23 35.18-0.57 35.72-1.72 35.72-0.34 36.7 0 37.99 0L38.8 0C39.23 0 39.26-0.09 39.3-0.45 39.44-1.81 40.39-14.76 40.39-14.81 40.39-15.82 39.84-16.75 38.03-16.75L37.15-16.75C36.9-16.75 36.86-16.75 36.79-16.68 36.72-16.62 36.7-16.46 36.67-16.1 36.56-14.19 36.45-13.27 36.34-10.91 36.09-12.2 35.14-12.68 33.64-12.68 28.93-12.68 28.03-7.95 28.03-5.32 28.03-1.43 30.04 0.23 32.42 0.23ZM34.39-9.67C35.9-9.67 36.22-8.24 36.22-6.72 36.22-4.03 35.23-2.78 33.94-2.78 32.46-2.78 32.12-4.39 32.12-5.95 32.12-8.22 32.85-9.67 34.39-9.67ZM47.27 0.23C49.28 0.23 51.71-0.48 51.71-2.24 51.71-3.6 50.28-3.85 49.99-3.85 49.35-3.85 49.37-2.6 47.79-2.6 46.25-2.6 45.64-3.76 45.64-4.91 47.11-4.91 52.73-5.14 52.73-9.28 52.73-11.14 51.62-12.68 48.47-12.68 42.63-12.68 41.75-7.36 41.75-5.07 41.75-0.95 44.64 0.23 47.27 0.23ZM47.7-9.67C48.47-9.67 48.85-9.1 48.85-8.49 48.85-7.38 47.56-6.75 45.71-6.72 45.87-8.01 46.36-9.67 47.7-9.67ZM66.81-7.38C67.03-9.64 67.19-13.67 67.19-14.44 67.19-15.28 67.01-16.07 64.97-16.07L63.73-16.07C63.43-16.07 63.37-15.98 63.37-15.37 63.37-14.6 63.07-10.84 62.82-7.77 62.73-6.52 62.39-3.31 60.31-3.31 58.7-3.31 58.68-5.18 58.68-6.2 58.68-7 59.15-13.45 59.15-13.74 59.15-15.28 58.68-16.07 56.82-16.07L55.58-16.07C55.33-16.07 55.22-15.96 55.19-15.39 55.1-13.74 54.45-7.15 54.45-5.14 54.45-2.17 55.96 0.23 59.9 0.23 65.67 0.23 66.54-4.66 66.81-7.38ZM76.84-12.68C75.21-12.68 74.14-12.11 73.44-10.73 73.44-11.66 72.72-12.45 71.11-12.45L70.23-12.45C70.02-12.45 69.93-12.45 69.86-12.38 69.79-12.32 69.77-12.16 69.75-11.79 69.61-10.07 68.73 1.11 68.73 2.04 68.73 3.42 69.18 4.19 71.04 4.19L71.86 4.19C72.24 4.19 72.33 4.1 72.35 3.74 72.72-0.45 72.53 1.49 72.83-1.77 73.35-0.52 74.19 0.23 75.77 0.23 78.78 0.23 81.11-2.51 81.11-7.22 81.11-10.98 79.64-12.68 76.84-12.68ZM75.18-9.67C76.72-9.67 77.04-8.24 77.04-6.72 77.04-4.03 76.04-2.78 74.75-2.78 73.28-2.78 72.94-4.39 72.94-5.95 72.94-8.24 73.67-9.67 75.18-9.67Z" />
			</g>
		</g>
		<g transform="translate(83.2300033569336, 0)">
				<svg style="overflow: visible;" class="image-svg-svg primary" height="25.128802906517624" width="25.040349520286682" y="0" x="0">
					<svg viewBox="-0.0016066993121057749 0.00008425116539001465 68.16183471679688 68.40291595458984" xmlns="http://www.w3.org/2000/svg">
						<path fill="#00ff37ff" d="M21.21 23.48v21.66c0 1.52.3 2 1.95 2 12.07-.07 24.15 0 36.22 0 2.48 0 5 .1 7.44 0 1.12 0 1.4.38 1.33 1.41A5.27 5.27 0 0 1 66.57 52q-7 7.41-14 14.85a4.79 4.79 0 0 1-3.7 1.55H4.68c-3 0-4.6-1.64-4.61-4.67C0 48.94 0 34.22 0 19.49a5 5 0 0 1 1.65-3.84Q9.18 8.6 16.63 1.5A4.93 4.93 0 0 1 18.35.36c2.27-.78 2.86-.37 2.86 2z" />
						<path fill="#278d68ff" d="M68.15 17.76v15.58c0 1.58-.57 2.16-2.14 2.12-3.17-.08-6.35-.11-9.52 0-1.61.07-1.91-.55-1.89-2 .07-5.83 0-11.66 0-17.49 0-2.25-.09-2.32-2.35-2.32-5.66 0-11.31-.05-17 0-1.47 0-1.85-.45-1.81-1.86.1-3.29.07-6.58 0-9.87C33.51.65 34 .1 35.33.1q15.49.06 31 0c1.51 0 1.84.76 1.83 2.06-.03 5.21-.01 10.4-.01 15.6z" />
					</svg>
				</svg>
		</g>
		<g transform="translate(111.27035331726074, 1.982132100741108)" fill="#ffffffff" data-gra="path-name-1">
			<g>
				<path transform="translate(-1.149999976158142, 16.75)" d="M4.64 0C4.91 0 4.98-0.09 5-0.34 5.03-0.61 5.21-2.92 5.39-5.59 5.77-5.5 6.2-5.46 6.72-5.43 7.43-2.49 8.33 0.23 10.23 0.23 12 0.23 13.09-1.06 13.09-1.47 13.09-1.74 12.72-2.26 12.02-3.28L10.12-6C12.16-6.95 13.06-8.92 13.06-11.25 13.06-14.31 11.52-16.3 7.63-16.3 6.38-16.3 4.32-16.07 2.42-16.07 2.13-16.07 2.08-15.85 1.99-14.49 1.92-13.4 1.83-11.57 1.61-8.53 1.38-5.64 1.15-2.76 1.15-2.01 1.15-0.7 1.81 0 3.51 0ZM7.18-12.9C8.67-12.9 9.21-12.2 9.21-10.98 9.21-10.03 8.87-8.38 6.97-8.38 6.57-8.38 6.09-8.44 5.59-8.56 5.7-10.21 5.8-11.73 5.84-12.79 6.34-12.86 6.81-12.9 7.18-12.9ZM19.97 0.23C21.98 0.23 24.4-0.48 24.4-2.24 24.4-3.6 22.98-3.85 22.68-3.85 22.05-3.85 22.07-2.6 20.49-2.6 18.95-2.6 18.34-3.76 18.34-4.91 19.81-4.91 25.42-5.14 25.42-9.28 25.42-11.14 24.31-12.68 21.17-12.68 15.33-12.68 14.44-7.36 14.44-5.07 14.44-0.95 17.34 0.23 19.97 0.23ZM20.4-9.67C21.17-9.67 21.55-9.1 21.55-8.49 21.55-7.38 20.26-6.75 18.41-6.72 18.56-8.01 19.06-9.67 20.4-9.67ZM32.49-2.78C31.01-2.78 30.36-3.51 30.36-5.66 30.36-6.86 30.56-9.67 32.44-9.67 33.46-9.67 33.46-8.83 33.48-7.36 33.48-7.09 33.62-7.04 34.07-7.04 35.93-7.04 37.01-7.79 37.01-9.42 37.01-11.23 35.68-12.68 32.74-12.68 27.3-12.68 26.51-7.77 26.51-5.43 26.51-1.02 29.38 0.23 31.67 0.23 33.75 0.23 35.07-0.95 35.34-1.27 35.63-1.61 36.06-2.88 36.06-3.28 36.06-3.71 35.86-3.96 35.54-3.96 35.02-3.96 34.25-2.78 32.49-2.78ZM37.6-2.78C37.6-0.59 39.07 0.23 40.89 0.23 42.76 0.23 43.85-0.7 44.58-1.74 44.8-0.52 45.48 0.23 46.93 0.23 49.01 0.23 49.65-1.38 49.65-2.72 49.65-3.19 48.31-2.69 48.31-4.21 48.31-4.89 48.7-8.01 48.7-8.69 48.7-11.23 47.27-12.68 43.92-12.68 40.46-12.68 38.73-11.14 38.73-9.24 38.73-8.04 39.5-7.49 41.04-7.49 41.5-7.49 41.68-7.54 41.75-7.81 42.02-8.9 42.22-9.64 43.49-9.64 44.62-9.64 44.89-9.03 44.89-8.06 44.89-7.74 44.87-7.54 44.85-7.22 40.12-7.11 37.6-5.48 37.6-2.78ZM44.64-5.37C44.51-3.64 43.51-2.78 42.54-2.78 42.04-2.78 41.5-3.01 41.5-3.71 41.5-4.91 43.06-5.37 44.64-5.37ZM58.34-7.04C59.92-7.04 60.94-8.42 60.94-10.05 60.94-11.86 59.65-12.68 58.48-12.68 57.5-12.68 56.12-12.13 55.42-10.73 55.31-11.66 54.81-12.45 53.09-12.45L52.2-12.45C51.96-12.45 51.75-12.22 51.73-11.79 51.25-5.14 51.05-3.08 51.05-2.15 51.05-0.77 51.5 0 53.36 0L54.17 0C54.42 0 54.67-0.16 54.67-0.45 54.67-0.97 54.97-4.3 55.1-6.23 55.26-8.42 55.85-9.53 56.69-9.53 57.23-9.53 57.37-9.06 57.37-8.4 57.37-8.04 57.32-7.72 57.32-7.33 57.32-7.11 58-7.04 58.34-7.04ZM69.27-2.67C69.27 0.05 68.57 1.58 66.58 1.58 64.29 1.58 64.75 0.11 63.71 0.11 62.84 0.11 61.74 0.63 61.74 1.79 61.74 3.06 63.34 4.41 66.51 4.41 70.75 4.41 72.19 2.42 72.62 0.38 73.28-2.69 73.62-9.35 73.62-10.12 73.62-11.93 72.94-12.45 71.38-12.45L70.34-12.45C70.16-12.45 70.07-12.41 70.04-12.22 70.02-12.04 69.98-10.78 69.95-10.82 69.64-11.86 68.84-12.68 67.06-12.68 62.73-12.68 61.69-8.69 61.69-5.8 61.69-2.24 63.37-0.68 65.86-0.68 67.46-0.68 68.53-1.34 69.27-2.67ZM67.37-3.69C66.15-3.69 65.67-4.44 65.67-5.93 65.67-6.84 65.86-9.67 68.07-9.67 69.18-9.67 69.75-8.96 69.75-7.15 69.75-6.02 69.52-3.69 67.37-3.69ZM74.93-2.78C74.93-0.59 76.41 0.23 78.22 0.23 80.1 0.23 81.18-0.7 81.91-1.74 82.13-0.52 82.81 0.23 84.26 0.23 86.34 0.23 86.98-1.38 86.98-2.72 86.98-3.19 85.64-2.69 85.64-4.21 85.64-4.89 86.03-8.01 86.03-8.69 86.03-11.23 84.6-12.68 81.25-12.68 77.79-12.68 76.07-11.14 76.07-9.24 76.07-8.04 76.84-7.49 78.38-7.49 78.83-7.49 79.01-7.54 79.08-7.81 79.35-8.9 79.55-9.64 80.82-9.64 81.95-9.64 82.22-9.03 82.22-8.06 82.22-7.74 82.2-7.54 82.18-7.22 77.45-7.11 74.93-5.48 74.93-2.78ZM81.97-5.37C81.84-3.64 80.84-2.78 79.87-2.78 79.37-2.78 78.83-3.01 78.83-3.71 78.83-4.91 80.39-5.37 81.97-5.37ZM93.63-12.68C91.14-12.68 88.45-11.59 88.45-8.49 88.45-4.28 93.41-5.03 93.41-3.31 93.41-2.67 92.71-2.56 91.96-2.56 89.97-2.56 89.72-3.4 88.97-3.4 88.09-3.4 87.66-2.2 87.66-1.68 87.66-0.25 90.76 0.23 92.46 0.23 95.51 0.23 97.07-1.31 97.07-3.49 97.07-7.54 91.69-6.84 91.69-8.72 91.69-9.33 92.25-9.78 93.09-9.78 94.34-9.78 94.38-8.81 94.4-8.26 94.4-8.01 94.52-7.95 94.95-7.95 96.51-7.95 97.37-8.67 97.37-9.98 97.37-11.55 96.17-12.68 93.63-12.68Z" />
			</g>
		</g>
		</g>
	</g>
</svg>